:SAMPLES-PER-SECOND 30
:FULLY-SPECIFIED
:DEGREES
723
root  13.9477 38.5986 10.8074 160.195 56.6334 170.404
RightUpLeg  -2.46665 -4.66354 -15.7989
RightLeg  54.0756 -0.336325 -0.876293
RightFoot  -0.373737 -1.09372 11.3436
RightToes  4.01633e-009 0 -3.6325e-017
Spine  0.730061 0.181228 -2.06072
Spine1  17.0645 3.25919 -13.8977
HEad  6.44335 0.202983 160.213
LeftShoulder1  0.501086 2.20778 -32.5795
LeftArm  5.33508 -9.7703 -41.2683
LeftForeArm  23.1239 -11.5479 -9.70238
LeftHand  -0.0276363 1.43812 0.58521
RightShoulder  -0.311646 -4.44804 25.8366
RightArm  16.8545 -1.16357 52.0866
RightForeArm  9.88455 10.0956 7.97184
RightHand  -0.363214 1.72756 -6.07049
LeftUpLeg  1.76208 6.342 -10.2469
LeftLeg  15.3866 11.4515 -0.239463
LeftFoot  -5.43617 -0.521883 10.7189
LeftToes  -1.95724e-009 9.62483e-011 3.51777e-011
724
root  14.37 38.6507 10.3725 161.678 54.3671 172.138
RightUpLeg  -4.39323 -3.15598 -14.366
RightLeg  50.071 -1.68539 -2.49178
RightFoot  -1.96974 -0.902666 10.8117
RightToes  4.01633e-009 0 -3.6325e-017
Spine  0.709573 -0.0499732 -2.86428
Spine1  17.5886 2.55032 -12.191
HEad  3.18536 2.33622 164.11
LeftShoulder1  0.535567 2.09035 -31.795
LeftArm  6.83268 -10.3409 -43.6274
LeftForeArm  21.3693 -12.774 -9.21676
LeftHand  -0.0463027 1.32051 1.13638
RightShoulder  -0.329861 -4.49264 26.233
RightArm  16.2213 0.163595 50.7997
RightForeArm  10.4172 9.92745 7.78337
RightHand  -0.328088 1.71243 -5.4862
LeftUpLeg  3.08161 6.41164 -9.97845
LeftLeg  15.1236 9.12406 -0.465707
LeftFoot  -6.13023 -0.463882 10.9705
LeftToes  -1.95724e-009 9.62483e-011 3.51777e-011
725
root  14.7732 38.7217 9.93208 163.146 51.8888 173.881
RightUpLeg  -5.78973 -0.891396 -12.8316
RightLeg  44.7722 -2.52364 -2.99893
RightFoot  -2.55208 -0.736548 9.34821
RightToes  4.01633e-009 0 -3.6325e-017
Spine  0.81923 -0.310106 -4.15806
Spine1  18.0243 1.46513 -9.30549
HEad  1.7294 5.42291 168.822
LeftShoulder1  0.565378 1.98793 -31.2192
LeftArm  10.7317 -10.2948 -45.6468
LeftForeArm  17.9066 -14.9017 -8.46027
LeftHand  -0.0372033 1.00747 0.860464
RightShoulder  -0.325602 -4.48568 26.0203
RightArm  15.1203 1.3557 49.875
RightForeArm  9.65745 9.52826 7.60974
RightHand  -0.447749 2.92455 -6.48136
LeftUpLeg  4.50498 6.61572 -9.39839
LeftLeg  14.69 6.38597 -1.00027
LeftFoot  -6.73058 -0.418189 11.3611
LeftToes  -1.95724e-009 9.62483e-011 3.51777e-011
726
root  15.1434 38.7316 9.50901 164.483 49.1991 175.003
RightUpLeg  -7.33708 0.831439 -12.1597
RightLeg  39.1055 -2.11464 -2.10803
RightFoot  -3.20821 -0.702115 9.54481
RightToes  4.01633e-009 0 -3.6325e-017
Spine  0.889701 -0.612448 -5.37368
Spine1  18.1295 0.430335 -6.92585
HEad  1.18653 9.04121 173.738
LeftShoulder1  0.624362 1.81906 -30.9786
LeftArm  15.0152 -10.0305 -46.9816
LeftForeArm  15.557 -17.1423 -7.36497
LeftHand  -0.023152 0.801899 0.488645
RightShoulder  -0.365644 -4.60435 26.1686
RightArm  14.5831 2.57013 48.6724
RightForeArm  9.88293 9.49406 7.40321
RightHand  -0.338337 1.6507 -5.74604
LeftUpLeg  5.16764 6.67768 -9.12825
LeftLeg  14.7673 3.71201 -1.47889
LeftFoot  -7.47896 -0.354071 11.7933
LeftToes  -1.95724e-009 9.62483e-011 3.51777e-011
727
root  15.524 38.7782 9.05488 165.712 46.4809 176.059
RightUpLeg  -8.39171 2.32889 -11.583
RightLeg  32.9064 -1.25322 -1.11723
RightFoot  -2.87339 -0.741506 9.73198
RightToes  4.01633e-009 0 -3.6325e-017
Spine  0.844826 -0.871752 -6.74225
Spine1  18.2313 -0.769118 -3.8329
HEad  0.716445 12.2277 178.021
LeftShoulder1  0.599807 1.90578 -31.4604
LeftArm  19.9494 -9.87245 -47.6616
LeftForeArm  12.6702 -18.9554 -6.48971
LeftHand  -0.0290422 1.31642 0.6412
RightShoulder  -0.315474 -4.46536 25.6545
RightArm  13.3008 2.93755 48.0012
RightForeArm  9.28592 9.54815 7.0032
RightHand  -0.324069 2.04454 -5.22985
LeftUpLeg  6.12103 6.82309 -8.63666
LeftLeg  14.4705 0.72471 -2.11213
LeftFoot  -7.97307 -0.310818 12.1573
LeftToes  -1.95724e-009 9.62483e-011 3.51777e-011
728
root  15.8703 38.833 8.59598 166.744 43.6974 176.82
RightUpLeg  -9.28909 3.13043 -11.4014
RightLeg  26.7916 0.223476 -0.0996923
RightFoot  -2.16409 -0.785954 9.58607
RightToes  4.01633e-009 0 -3.6325e-017
Spine  0.822298 -1.15984 -7.07276
Spine1  18.4039 -1.45918 -2.24472
HEad  0.995205 15.2841 -177.154
LeftShoulder1  0.684363 1.64102 -30.646
LeftArm  21.4228 -9.51457 -48.9101
LeftForeArm  12.3951 -19.3499 -6.27506
LeftHand  -0.0310449 0.431824 0.672827
RightShoulder  -0.367556 -4.60551 26.336
RightArm  11.9127 3.36918 47.0473
RightForeArm  8.05482 9.47218 6.59936
RightHand  -0.399801 2.6495 -5.9891
LeftUpLeg  7.13433 6.79066 -8.35407
LeftLeg  13.8355 -2.04727 -2.55526
LeftFoot  -8.19888 -0.29573 12.5289
LeftToes  -1.95724e-009 9.62483e-011 3.51777e-011
729
root  16.2286 38.8761 8.11073 167.576 41.1467 177.493
RightUpLeg  -9.62035 3.70636 -11.0903
RightLeg  20.5301 1.30221 0.383662
RightFoot  -1.4098 -0.871928 9.89895
RightToes  4.01633e-009 0 -3.6325e-017
Spine  0.98796 -1.3681 -7.64766
Spine1  18.2679 -2.27771 -0.132383
HEad  1.68817 18.2878 -173.378
LeftShoulder1  0.675293 1.64254 -30.196
LeftArm  21.173 -8.7214 -49.8879
LeftForeArm  13.0891 -18.9519 -6.53762
LeftHand  -0.0449905 0.322999 1.00017
RightShoulder  -0.36024 -4.58434 26.2626
RightArm  11.6295 3.491 46.4465
RightForeArm  7.16409 9.93281 6.43351
RightHand  -0.408197 2.67084 -6.09136
LeftUpLeg  8.33504 6.88187 -7.91181
LeftLeg  13.1541 -4.76254 -2.96552
LeftFoot  -8.5128 -0.267425 12.8674
LeftToes  -1.95724e-009 9.62483e-011 3.51777e-011
730
root  16.5958 38.9121 7.61007 168.518 38.8005 178.223
RightUpLeg  -9.66024 3.5869 -10.3141
RightLeg  14.2952 1.69896 0.112903
RightFoot  -0.198235 -1.03558 10.566
RightToes  4.01633e-009 0 -3.6325e-017
Spine  1.04158 -1.48339 -8.35496
Spine1  18.1015 -3.28369 2.79931
HEad  2.85377 21.0808 -170.22
LeftShoulder1  0.640619 1.76271 -30.6889
LeftArm  21.1034 -8.05838 -49.9898
LeftForeArm  13.4794 -18.1049 -7.19802
LeftHand  -0.0338892 0.722875 0.763564
RightShoulder  -0.279239 -4.35857 25.4293
RightArm  11.0096 3.44034 46.3598
RightForeArm  6.75827 10.1243 6.20833
RightHand  -0.412499 2.51979 -6.25937
LeftUpLeg  9.31464 7.22442 -7.08129
LeftLeg  12.8297 -7.79985 -3.64611
LeftFoot  -8.94829 -0.229871 13.5185
LeftToes  -1.95724e-009 9.62483e-011 3.51777e-011
731
root  16.9653 38.9178 7.10101 169.142 36.4496 178.636
RightUpLeg  -9.476 0.288194 -9.03177
RightLeg  8.93067 4.72336 -0.578695
RightFoot  0.894658 -1.24218 11.6118
RightToes  4.01633e-009 0 -3.6325e-017
Spine  1.1583 -1.65269 -8.98188
Spine1  17.9791 -4.17884 5.18218
HEad  4.03417 23.1508 -167.35
LeftShoulder1  0.72348 1.50705 -30.2048
LeftArm  18.5733 -6.64054 -50.4317
LeftForeArm  15.5984 -16.5475 -8.14761
LeftHand  -0.0344895 1.29609 0.80059
RightShoulder  -0.283549 -4.37263 25.3591
RightArm  10.9361 3.87612 45.8958
RightForeArm  6.40075 10.1441 6.18784
RightHand  -0.441251 2.67542 -6.56042
LeftUpLeg  10.2867 7.31209 -6.56072
LeftLeg  12.6673 -10.4124 -4.02876
LeftFoot  -9.49658 -0.161647 13.5274
LeftToes  -1.95724e-009 9.62483e-011 3.51777e-011
732
root  17.3597 38.8933 6.5711 169.298 34.5856 178.746
RightUpLeg  -9.15569 -3.88218 -7.47868
RightLeg  4.95893 9.53928 -1.23315
RightFoot  1.42259 -1.39064 12.4793
RightToes  4.01633e-009 0 -3.6325e-017
Spine  1.02056 -1.76584 -9.16349
Spine1  18.5154 -4.77582 6.7246
HEad  5.51081 24.3494 -165.129
LeftShoulder1  0.876248 0.996511 -28.8192
LeftArm  12.8687 -5.09749 -51.1595
LeftForeArm  20.7902 -13.7761 -9.47064
LeftHand  -0.0184533 0.862391 0.33837
RightShoulder  -0.369586 -4.61909 26.1292
RightArm  10.6439 4.82673 45.2678
RightForeArm  6.36645 10.0943 6.10927
RightHand  -0.470667 3.05384 -6.69387
LeftUpLeg  11.5183 7.39661 -6.18991
LeftLeg  12.5685 -12.5126 -4.34464
LeftFoot  -10.2654 -0.0647167 13.4317
LeftToes  -1.95724e-009 9.62483e-011 3.51777e-011
733
root  17.7982 38.8264 6.00578 169.566 32.9215 178.683
RightUpLeg  -9.10914 -5.15584 -6.36017
RightLeg  2.69698 12.6518 -1.44071
RightFoot  1.13053 -1.47266 13.4929
RightToes  4.01633e-009 0 -3.6325e-017
Spine  1.01431 -1.90326 -10.1574
Spine1  18.1843 -5.69847 9.1831
HEad  5.98707 24.4309 -164.836
LeftShoulder1  0.898674 0.913575 -28.5853
LeftArm  8.91232 -3.33107 -50.6262
LeftForeArm  25.008 -11.1673 -10.4228
LeftHand  -0.000532692 1.58321 -0.235731
RightShoulder  -0.400765 -4.70114 26.4853
RightArm  10.3262 5.23652 44.8707
RightForeArm  6.24018 9.94632 6.03185
RightHand  -0.421211 2.58638 -6.34077
LeftUpLeg  12.4922 7.6716 -5.73329
LeftLeg  12.7872 -14.4598 -4.87939
LeftFoot  -11.1409 0.0437569 13.4881
LeftToes  -1.95724e-009 9.62483e-011 3.51777e-011
734
root  18.2743 38.7075 5.39961 169.513 31.6226 178.2
RightUpLeg  -8.84769 -5.24932 -5.65768
RightLeg  2.08022 15.1677 -1.2801
RightFoot  0.538931 -1.49097 14.1904
RightToes  4.01633e-009 0 -3.6325e-017
Spine  0.572358 -2.02484 -10.4811
Spine1  18.4653 -6.11779 10.0592
HEad  7.06238 25.0283 -163.822
LeftShoulder1  0.883106 0.932735 -28.232
LeftArm  4.12123 -2.21982 -49.7583
LeftForeArm  30.5528 -7.51834 -11.2406
LeftHand  0.00040372 2.00531 -0.399546
RightShoulder  -0.465452 -4.87864 26.9871
RightArm  10.1682 5.3455 44.8435
RightForeArm  6.07222 10.1292 5.96089
RightHand  -0.438068 2.47423 -6.66849
LeftUpLeg  13.6266 7.88159 -5.65622
LeftLeg  13.0153 -15.7408 -5.30751
LeftFoot  -12.175 0.173089 13.6304
LeftToes  -1.95724e-009 9.62483e-011 3.51777e-011
